/* XPM */
static char *cGl4aWwtZnJhbWUtMCslMjgzJTI5[] = {
/* columns rows colors chars-per-pixel */
"32 32 67 1 ",
"  c #231504",
". c #251505",
"X c #2D1B06",
"o c #211208",
"O c #271717",
"+ c #261817",
"@ c #2A1B16",
"# c #2F1B15",
"$ c #2A171C",
"% c #291919",
"& c #291B1A",
"* c #2A1A1A",
"= c #2A1A1B",
"- c #2C1B1B",
"; c #2F1F18",
": c #2B181C",
"> c #2F2118",
", c #392A12",
"< c #2E1734",
"1 c #362420",
"2 c #3B2728",
"3 c #413414",
"4 c #5D5132",
"5 c #210D42",
"6 c #5C456C",
"7 c #BD9CE2",
"8 c #B794E8",
"9 c #BF9DEA",
"0 c #BF9BF3",
"q c #C09EED",
"w c #C39EF5",
"e c #C39BFB",
"r c #C39EFB",
"t c #C69EF8",
"y c #C69FFA",
"u c #C39FFC",
"i c #C39DFF",
"p c #C39FFF",
"a c #C49FFE",
"s c #C49FFF",
"d c #C69EFF",
"f c #C69FFF",
"g c #C7A5E8",
"h c #C1A0EF",
"j c #C7A7EE",
"k c #C7A3F2",
"l c #C3A1F5",
"z c #C6A2F5",
"x c #C4A0F6",
"c c #C4A0F7",
"v c #C5A1F9",
"b c #C4A0FA",
"n c #C6A2FA",
"m c #C5A0FC",
"M c #C5A1FC",
"N c #C5A0FD",
"B c #C4A1FD",
"V c #C5A0FE",
"C c #C4A0FF",
"Z c #C5A0FF",
"A c #C6A2FF",
"S c #C8A3FF",
"D c #C9A4FF",
"F c #CEAFFD",
"G c #D3C1EB",
"H c gray96",
"J c None",
/* pixels */
"JJJJJJJJJJJJJJJJJJJJJJJJJJJJJJJJ",
"JJJJJJJJJJJJJJJJJJJJJJJJJJJJJJJJ",
"JJJJJJJJJJJJJJJJJJJJJJJJJJJJJJJJ",
"JJJJJJJJJJJJJJJJJJJJJJJJJJJJJJJJ",
"JJJJJJJJJJJJJJJJJJJJJJJJJJJJJJJJ",
"JJJJJJJJJJJJJJJJJJJJJJJJJJJJJJJJ",
"JJJJJJJJJJJJJJJJJJJJJJJJJJJJJJJJ",
"JJJJJJJJJJJJJJJJJJJJJJJJJJJJJJJJ",
"JJJJJJJJJJJJJ55555555JJJJJJJJJJJ",
"JJJJJJJJJJJ55sSsMsMsM5JJJJJJJJJJ",
"JJJJJJJJJ55SsssMsMMMsk55JJJJJJJJ",
"JJJJJJJJ57MsS@1MMs:#Mbys5JJJJJJJ",
"JJJ55JJJ5SysM%HMss*Hssss5JJJ55JJ",
"JJ5MM5JJ5MsSs*%sSs*:SsyMwJJ5Ms6J",
"JJ5MMs55ssFsMOOMss*:ssFMz55ssM5J",
"JJJ9sFsMsSsFsSss>SssSFssMesFShJJ",
"JJ5sMsFsMsFwMssM4.ysMsFSssFSyM5J",
"JJ5MsFMMsMMys;MssSM*sMMb<ssFss5J",
"JJJ5SsD55SSsSX2.3,oGsyys55SsM5JJ",
"JJ5yss5JJ58sssMMssSsMs05JJ5st5JJ",
"JJJ555JJJJ5gncbMsncqsj5JJJJ55JJJ",
"JJJJJJJJJJJ55555555555JJJJJJJJJJ",
"JJJJJJJJJJJJJJJJJJJJJJJJJJJJJJJJ",
"JJJJJJJJJJJJJJJJJJJJJJJJJJJJJJJJ",
"JJJJJJJJJJJJJJJJJJJJJJJJJJJJJJJJ",
"JJJJJJJJJJJJJJJJJJJJJJJJJJJJJJJJ",
"JJJJJJJJJJJJJJJJJJJJJJJJJJJJJJJJ",
"JJJJJJJJJJJJJJJJJJJJJJJJJJJJJJJJ",
"JJJJJJJJJJJJJJJJJJJJJJJJJJJJJJJJ",
"JJJJJJJJJJJJJJJJJJJJJJJJJJJJJJJJ",
"JJJJJJJJJJJJJJJJJJJJJJJJJJJJJJJJ",
"JJJJJJJJJJJJJJJJJJJJJJJJJJJJJJJJ"
};
