/* XPM */
static char *result[] = {
/* columns rows colors chars-per-pixel */
"32 32 109 2 ",
"   c #A74D00",
".  c #A75303",
"X  c #AD5000",
"o  c #B45300",
"O  c #BC5500",
"+  c #B65A00",
"@  c #B75803",
"#  c #BD5A00",
"$  c #A95E16",
"%  c #BB6013",
"&  c #C15600",
"*  c #CC5300",
"=  c #C55C00",
"-  c #CA5D00",
";  c #C86000",
":  c #CD6100",
">  c #C86800",
",  c #CA670E",
"<  c #D16503",
"1  c #D46600",
"2  c #D66800",
"3  c #DD6C00",
"4  c #DB6D06",
"5  c #E26600",
"6  c #E36A03",
"7  c #E27001",
"8  c #E57201",
"9  c #E67502",
"0  c #EA7501",
"q  c #EA7703",
"w  c #EC7A04",
"e  c #EE7E0A",
"r  c #E87B0D",
"t  c #F07F0B",
"y  c #F2820E",
"u  c #EF8314",
"i  c #F48512",
"p  c #F88211",
"a  c #F48B17",
"s  c #F68F1B",
"d  c #F88E1B",
"f  c #F6951F",
"g  c #EEBE1E",
"h  c #F89520",
"j  c #F99723",
"k  c #F79C25",
"l  c #F89C25",
"z  c #F7A429",
"x  c #F8A629",
"c  c #F9A72D",
"v  c #F6AC29",
"b  c #F7A82D",
"n  c #F7AB2D",
"m  c #F9AA2B",
"M  c #F2B422",
"N  c #F4B525",
"B  c #F2BC20",
"V  c #F2BA24",
"C  c #EFD90F",
"Z  c #F3DD0F",
"A  c #EFCE13",
"S  c #EEC418",
"D  c #EFC41A",
"F  c #F1CD14",
"G  c #F2C31C",
"H  c #EFD313",
"J  c #EFD710",
"K  c #F1D412",
"L  c #F3DD11",
"P  c #F5E413",
"I  c #F7E917",
"U  c #F8E817",
"Y  c #F7EB1A",
"T  c #F9EA19",
"R  c #F9EA1A",
"E  c #F7EE27",
"W  c #F8EC20",
"Q  c #F9EC21",
"!  c #F9ED28",
"~  c #F9EE2A",
"^  c #F9EE2D",
"/  c #FAEF30",
"(  c #F9EF33",
")  c #FAF030",
"_  c #FBF135",
"`  c #F9F138",
"'  c #F9F23D",
"]  c #D48641",
"[  c #DC8F44",
"{  c #DD9B42",
"}  c #DA9460",
"|  c #FBF140",
" . c #FBF241",
".. c #FBF346",
"X. c #FBF34A",
"o. c #FAF653",
"O. c #FBF653",
"+. c #FAF656",
"@. c #FBF65A",
"#. c #FBF85D",
"$. c #FCF860",
"%. c #FAF865",
"&. c #FBF96C",
"*. c #FBF970",
"=. c #FCFA72",
"-. c #F9FA7B",
";. c #FAFA85",
":. c #FBFB95",
">. c None",
/* pixels */
">.>.>.>.>.>.>.>.>.>.>.>.>.>.>.>.>.>.>.>.>.>.>.>.>.>.>.>.>.>.>.>.",
">.>.>.>.>.>.>.>.>.>.% >.4 - - * * >.>.>.# >.>.>.>.>.>.>.>.>.>.>.",
">.>.>.>.>.>.>.>.>.% % # 4 4 3 7 7 2 >.>.>.>.>.  >.>.>.>.>.>.>.>.",
">.>.>.>.>.>.+ + & >.>.6 w e 8 3 3 3 7 w q >.1 >.>.>.>.>.>.>.>.>.",
">.>.>.>.>.>.% 1 > >.y e q y 8 y y 9 l f t w i 1 0 >.>.>.>.>.>.>.",
">.>.>.>.>.>.: : 1 e i f s N s y y a x f N h f 9 1 0 2 >.>.>.>.>.",
">.>.>.>.+ >.8 9 q j j f v N B v v x M M N z f a w 2 2 = >.>.>.>.",
">.>.>.>.# ; 2 9 y a l k N D D K K Z A A x B z z s y 5 < >.>.>.>.",
">.>.>.>.# 3 3 y y h h b S P Z Q Q P I I K K n b a a i e >.3 >.>.",
">.>.>.; 3 3 p p y N n G Z R Z / / P  ._ T J b b t a w 2 >.>.>.>.",
">.>.>.>.1 3 p a a v n Z T Y E | | X.X._ ) ! Q f v l l y w # # >.",
">.>.>.>.>.t i i a v P I ~ ` ! ....*.%.| ~ ( U A K s s y 3 # # >.",
">.>.>.>.>.>.t a F F P I T ..@.&.&.;.;.-.o. .` R L F F e a 3 1 >.",
">.>.>.>.q t a a h F F T ..%.%.&.&.:.;.=.@._ P P L c z l 2 1 1 = ",
">.O >.>.8 a a b N K K P R %.%.-.-.:.-.-.o.Q T T Z M z i t 8 & >.",
">.>.o 1 3 e d i l m L Y ( #.#.-.-.:.+.$.O.' C C K D j u 7 2 2 >.",
">.>.o 1 3 e d i l m L Y ( #.#.-.-.:.+.$.O.' C C K D j u 7 2 2 >.",
">.>.>.o 1 3 r z f B B P R ( ' &.&.+.$.$./ W P L B v j j 0 8 : >.",
">.>.>.= { r i i f z K U T ' ' @.@.+.+./ W L L L M v f i q # # >.",
">.>.>.>.X 9 t t l x c F P T ' ....! P ^ Q L L J B z z f 7 >.# >.",
">.>.>.>.} 3 3 3 a l D M P Z T Z Z U I I C A j J B j i 7 3 >.>.>.",
">.>.>.>.= & 7 q 0 8 h M K G Z H H Z g Z P C N s s i i 7 2 >.o >.",
">.>.>.. = # 1 q 8 8 a v G M M H H A g J N N z z s s 7 2 : >.o >.",
">.>.>.>.+ = # # < 2 2 e f N N b b m n n V l x x t : 8 2 : >.>.>.",
">.>.>.>.>.@ & , # < 0 9 t i i N N m j k f t t t q 9 >.>.>.>.>.>.",
">.>.>.>.>.>.& ] = ; 0 3 t e y q q j k k y t t 7 1 : : >.>.>.>.>.",
">.>.>.>.>.>.O O # O 2 O 3 7 y 2 2 q y q 3 8 ; 1 9 - - >.>.>.>.>.",
">.>.>.>.>.>.>.>.>.>.>.= < 2 3 8 8 : : : 7 2 ; & X >.>.>.>.>.>.>.",
">.>.>.>.>.>.>.>.>.>.>.>.>.  [ 8 8 O O O + # >.>.# X >.>.>.>.>.>.",
">.>.>.>.>.>.>.>.>.>.>.>.>.    O O X + + + >.>.  >.>.>.>.>.>.>.>.",
">.>.>.>.>.>.>.>.>.>.>.>.$     X X . >.>.>.>.>.>.>.>.>.>.>.>.>.>.",
">.>.>.>.>.>.>.>.>.>.>.>.>.>.>.>.>.>.>.>.>.>.>.>.>.>.>.>.>.>.>.>."
};
