/* XPM */
static char *result[] = {
/* columns rows colors chars-per-pixel */
"32 32 114 2 ",
"   c #A74D00",
".  c #A44F00",
"X  c #A84D00",
"o  c #AE4D00",
"O  c #A75303",
"+  c #AD5000",
"@  c #B45300",
"#  c #BC5500",
"$  c #B65A00",
"%  c #B75803",
"&  c #BD5A00",
"*  c #A95E16",
"=  c #BB6013",
"-  c #C15600",
";  c #CC5300",
":  c #C55C00",
">  c #CA5D00",
",  c #C36606",
"<  c #C86000",
"1  c #CD6100",
"2  c #C86800",
"3  c #CA670E",
"4  c #D16503",
"5  c #D46600",
"6  c #D66800",
"7  c #DD6C00",
"8  c #DB6D06",
"9  c #E26600",
"0  c #E36A03",
"q  c #E27001",
"w  c #E57201",
"e  c #E67502",
"r  c #EA7501",
"t  c #EA7703",
"y  c #EC7A04",
"u  c #EE7E0A",
"i  c #E87B0D",
"p  c #F07F0B",
"a  c #F2820E",
"s  c #EF8314",
"d  c #F48512",
"f  c #F88211",
"g  c #F48B17",
"h  c #F68F1B",
"j  c #F88E1B",
"k  c #F6951F",
"l  c #EEBE1E",
"z  c #F89520",
"x  c #F99723",
"c  c #F79C25",
"v  c #F89C25",
"b  c #F7A429",
"n  c #F8A629",
"m  c #F9A72D",
"M  c #F6AC29",
"N  c #F7A82D",
"B  c #F7AB2D",
"V  c #F9AA2B",
"C  c #F2B422",
"Z  c #F4B525",
"A  c #F2BC20",
"S  c #F2BA24",
"D  c #EFD90F",
"F  c #F3DD0F",
"G  c #EFCE13",
"H  c #EEC418",
"J  c #EFC41A",
"K  c #F1CD14",
"L  c #F2C31C",
"P  c #EFD313",
"I  c #EFD710",
"U  c #F1D412",
"Y  c #F3DD11",
"T  c #F5E413",
"R  c #F7E917",
"E  c #F8E817",
"W  c #F7EB1A",
"Q  c #F9EA19",
"!  c #F9EA1A",
"~  c #F7EE27",
"^  c #F8EC20",
"/  c #F9EC21",
"(  c #F9ED28",
")  c #F9EE2A",
"_  c #F9EE2D",
"`  c #FAEF30",
"'  c #F9EF33",
"]  c #FAF030",
"[  c #FBF135",
"{  c #F9F138",
"}  c #F9F23D",
"|  c #F8F13E",
" . c #D48641",
".. c #DC8F44",
"X. c #DD9B42",
"o. c #DA9460",
"O. c #FBF140",
"+. c #FBF241",
"@. c #FBF346",
"#. c #FBF34A",
"$. c #FAF653",
"%. c #FBF653",
"&. c #FAF656",
"*. c #FBF65A",
"=. c #FBF85D",
"-. c #FCF860",
";. c #FAF865",
":. c #FBF96C",
">. c #FBF970",
",. c #FCFA72",
"<. c #F9FA7B",
"1. c #FAFA85",
"2. c #FBFB95",
"3. c None",
/* pixels */
"3.3.3.3.3.3.3.3.3.3.3.3.3.3.3.3.3.$ 3.3.3.3.3.3.3.3.3.3.3.3.3.3.",
"3.3.3.3.3.3.3.3.3.3.3.3.3.3.< & & 3.3.1 = $ 3.3.3.3.3.3.3.3.3.3.",
"3.3.3.3.3.3.3.o 3.# 3.3.3.5 5 7 7 < w 1 5 $ - 3.3.3.3.3.3.3.3.3.",
"3.3.3.3.3.3.3.& @ 3.3.3.3.3.7 7 7 6 e e 5 2 3.: = = 3.3.3.3.3.3.",
"3.3.3.3.3.3.3.1 @ 5 w t 3.p y f f a a t u 3.a 3.3.& 3.3.3.3.3.3.",
"3.3.3.3.3.3.: 4 5 7 t g p p d g g a z g x d u 7 0 0 8 3.3.3.3.3.",
"3.3.3.3.3.3.+ 7 X.7 u g g g v g g Z z v x k k t t y 8 > 3.3.3.3.",
"3.3.3.O : o.e e i i j d N z K M M B B N c M h a a u w 7 ; 3.3.3.",
"3.3.3.O : o.e e i i j d N z K M M B B N c M h a a u w 7 ; 3.3.3.",
"3.3.$ : - 7 7 e p d b v Z Z K T T F L H Z Z Z C h w 7 q 3.3.3.3.",
"3.3.3.: & q 7 t p g k A V U K R R F Q F T J A C a a p 7 6 3.3.3.",
"3.3.% & 5 t t a g v b A Y T T Q Q ) W ! F I U N M g e q 3.3., 3.",
"3.- - 3 & w r k v n m U T W ! @.@.{ ( ~ ` / F K n n v k y 3.& 3.",
"3.#  .& 4 w w z z J K E ! ' | ;.;.*.@.O.[ T R R G C k p t t 3.@ ",
"3.# & : 4 6 g z C C P T Q ' =.;.;.:.:.>.#.+.R R G Z Z h y 3.3.3.",
"3.3.# < r t u j M U T Q } } -.<.<.2.1.;.#.[ [ F U n b z d 5 3.  ",
"3.3.3.6 7 e k j L L F Q } *.:.2.2.1.1.<.O.] Q Y U A v k e 5 3.3.",
"3.3.: # q p d g Z C F F @.@.&.&.&.<.,.$.) ( ( T I B b g 5 r 3.3.",
"3.3.3.4 7 u d k Z H P Q E ( &.-.-.<.$.*.+.' / T N N h h y r 3.3.",
"3.3.3.6 q a a x Z N G F R T _ ` ` %./ [ { E G A k p g a 6 6 3.3.",
"*     ..7 6 t h V V M l F R / ^ ^ } R Q T ! U A M M g d 9 : 3.3.",
"3.    w w t t z x x B I T D T Y Y T D Q T Y K M h v y u 4 4 3.3.",
"3.X + # # 1 a z c c x S Z D G Y Y Y Y U F m K k h d a 6 3.3.3.3.",
"3.3.O + # 1 1 7 t a k v Z Z x I I C A J C b b k u a y 3.7 3.3.3.",
"3.3.O + # 1 1 7 t a k v Z Z x I I C A J C b b k u a y 3.7 3.3.3.",
"3.3.3.3.$ # q w 7 7 p a n b h A A M M x x d v g g 7 r & 3.3.3.3.",
"3.3.3.3.$ $ $ 6 6 w p p n g h x x b k x s d p w 6 7 & & 3.3.3.3.",
"3.3.3.3.3.3.& 1 < < 5 q t p h d d x k d r q w 5 5 5 3.3.3.3.3.3.",
"3.3.3.3.3.3.3.3.3.- e 5 e 1 w q q q q t w 6 6 5 - : 3.3.3.3.3.3.",
"3.3.3.3.3.3.  . & + $ > 1 3.6 6 6 7 3.3.& 1 3.& 3.3.3.3.3.3.3.3.",
"3.3.3.3.3.3.3.3.3.+ 3.> 3.3.: 1 1 3.3.& & 3.3.3.3.3.3.3.3.3.3.3.",
"3.3.3.3.3.3.3.3.3.3.3.3.3.3.3.3.3.@ @ 3.3.3.3.3.3.3.3.3.3.3.3.3."
};
