/* XPM */
static char *cGl4aWwtZnJhbWUtMCslMjgyJTI5[] = {
/* columns rows colors chars-per-pixel */
"32 32 137 2 ",
"   c #A64E00",
".  c #AD4E00",
"X  c #A35002",
"o  c #AC5101",
"O  c #A6540A",
"+  c #B35401",
"@  c #BB5600",
"#  c #B55A04",
"$  c #BC5A01",
"%  c #B6590B",
"&  c #A75D1C",
"*  c #BA601A",
"=  c #BA6F36",
"-  c #BF7A3F",
";  c #C05700",
":  c #CB5400",
">  c #C45C01",
",  c #C95D00",
"<  c #C76003",
"1  c #CC6101",
"2  c #C76804",
"3  c #C2660F",
"4  c #CF6608",
"5  c #D36602",
"6  c #D56802",
"7  c #DC6C03",
"8  c #D0650A",
"9  c #DA6D0E",
"0  c #C96716",
"q  c #C06814",
"w  c #E16600",
"e  c #E16F05",
"r  c #E26A0A",
"t  c #E47106",
"y  c #E97406",
"u  c #E57409",
"i  c #E9760A",
"p  c #EB790C",
"a  c #E77A15",
"s  c #EE7D12",
"d  c #F07E13",
"f  c #EF821B",
"g  c #F28116",
"h  c #F48419",
"j  c #F88118",
"k  c #F48A1D",
"l  c #F68E21",
"z  c #F88D21",
"x  c #F69424",
"c  c #F89425",
"v  c #F99628",
"b  c #F79B2A",
"n  c #F89B2A",
"m  c #F7A32D",
"M  c #F8A52D",
"N  c #F6AB2D",
"B  c #F9A92F",
"V  c #EEBD23",
"C  c #F2B327",
"Z  c #F2BB25",
"A  c #F4B42A",
"S  c #F2B929",
"D  c #F7A731",
"F  c #F9A631",
"G  c #F7AA31",
"H  c #F9A930",
"J  c #EEC31E",
"K  c #EFCD1A",
"L  c #F0C71F",
"P  c #F1CC1B",
"I  c #EFD617",
"U  c #EFD816",
"Y  c #EFD21A",
"T  c #F3DC16",
"R  c #F1D319",
"E  c #F3DC18",
"W  c #F5E31A",
"Q  c #F8E71D",
"!  c #F7E81D",
"~  c #F9E91F",
"^  c #EFC320",
"/  c #F0C423",
"(  c #F2C222",
")  c #F7EA20",
"_  c #F7EB23",
"`  c #F7EA20",
"'  c #F9E920",
"]  c #FAEA21",
"[  c #F9EB26",
"{  c #F8EB25",
"}  c #F7ED2B",
"|  c #F8EC28",
" . c #F9EC2C",
".. c #F8EE2D",
"X. c #F9EE2E",
"o. c #FAEF33",
"O. c #F9EF36",
"+. c #F9EE31",
"@. c #FAF033",
"#. c #F7F03F",
"$. c #FBF138",
"%. c #FAF13A",
"&. c #FAF13C",
"*. c #F9F23F",
"=. c #FBF23F",
"-. c #F9F13B",
";. c #D38543",
":. c #DB8E46",
">. c #DC9A44",
",. c #F79C4D",
"<. c #D99360",
"1. c #F8F140",
"2. c #FAF040",
"3. c #FBF142",
"4. c #FBF243",
"5. c #FBF348",
"6. c #FAF448",
"7. c #FBF34B",
"8. c #FBF654",
"9. c #FAF657",
"0. c #FAF654",
"q. c #FBF758",
"w. c #FBF65A",
"e. c #FBF65C",
"r. c #FBF85D",
"t. c #FCF860",
"y. c #FAF865",
"u. c #FBF862",
"i. c #FBF96C",
"p. c #FBF970",
"a. c #FCFA71",
"s. c #F9FA7A",
"d. c #FAFA7C",
"f. c #FAFA84",
"g. c #FBFB94",
"h. c None",
"j. c black",
/* pixels */
"h.h.h.h.h.h.h.h.h.h.h.h.h.h.. + h.h.- h.h.h.h.h.h.h.h.h.h.h.h.h.",
"h.h.h.h.h.h.h.h.h.h.h.h.h.@ $ ; + @ h.h.h.h.h.h.h.h.h.h.h.h.h.h.",
"h.h.h.h.h.h.h.h.O + h.h.> 1 + > h.h.h.h.h.h.h.h.h.h.h.h.h.h.h.h.",
"h.h.h.h.h.h.h.# > > <.o 7 8 5 e 5 t h.h.5 5 < $ # h.h.h.h.h.h.h.",
"h.h.h.h.h.h.% > $ ; 7 u u >.7 5 i y i h.h.7 7 < h.= h.h.h.h.h.h.",
"h.h.h.h.h.; ; $ 5 e 7 u a a d i s k d d p i 7 6 t 1 * h.h.h.h.h.",
"h.h.h.h.@ ;.0 $ e i e i d h z l h n k d h j g u u 5 5 # h.h.h.h.",
"h.h.h.h.$ > $ 8 t y g k k x m x n D c n k k g g i 5 2 ; h.h.h.h.",
"h.h.h.h.@ < 8 6 t h x n n m Z Z B A ^ P N A c k g s h.h.> j.j.j.",
"h.h.h.h.6 5 y i k c c M F J Z / E R P W K G k n v h g h.h.* j.j.",
"h.h.h.> @ 7 u s z b C ^ P R W E W W U ! T ( D b v x s 7 j.$ j.j.",
"& h.h.8 7 e d x z N R Y W Q ' ' ) ' ~ X.~ T J A N l i i r j.j.j.",
"    h.6 e s h k x ( Z W ~ ~ O.$.1.*.5.-.) ' W ^ A F g g p 9 h.h.",
"    :.7 6 g h x A C T ~ ' *.0.3.r.y.w. .} [ T I Z C l s t e , h.",
"o @ t t 6 i v A J Y T T *.w.t.w.s.p.i.5.3.o.[ R D n g t 7 7 : h.",
"o + 6 u t i x n Z P E [ -.5.r.d.s.f.s.w.3.X.W T V n n k g 7 h.+ ",
"O o @ 1 i g l B D K ~ Q 5.t.i.s.g.g.f.p.7.$.W T P N k d 7 e h.h.",
"h.# @ 1 g c v B N Z T !  .9.9.d.s.f.f.y.7.4.! ! ( M k u e 6 h.h.",
"h.# @ 1 7 g b v G V T W +.2.t.i.s.a.s.3.o.$.) ! K C n x d h.h.h.",
"h.h.# e t i g v S I W ! [ o.8.2.0.w.0.X.@.~ T R A A x d p h.3 h.",
"h.h.$ 6 6 7 h x n A U W ! { *.[ [ $.4.O. .Q E R M m l p i j.$ h.",
"h.h.h.1 < t d g F A / K E W ! X.~ ) -.Q [ W I Z n l c h j.j.+ h.",
"j.  h.h.< 5 p d M m v I Z E U ~ ~ W ' K Z S D G m x u 5 j.> h.h.",
"j.j.X $ ; u e i k l l Z C Z R I T W E R Z x d l l k 5 5 j.  h.h.",
"j.j.j.o # > 5 u d l v m N A ^ J C F P N B N l k g p y h.> h.h.h.",
"j.j.j.j.h., 1 1 t e h v x v v N v m G x l n k h e 6 ,.h.h.h.h.h.",
"j.j.j.j.h.h.h.h.6 e e x h k f b h n x s h g p s w > h.h.h.h.h.h.",
"j.j.j.j.h.h.h.> 1 6 7 e i y e g d t k k g p 6 h.8 h.h.h.h.h.h.h.",
"h.h.h.h.h.h.h.h.h.h.h.h.h.t 6 i t 5 6 7 y 7 h.7 h.h.h.h.h.h.h.h.",
"h.h.h.h.h.h.h.h.h.+ + $ $ 1 6 1 5 6 5 + $ $ h.h.h.h.h.h.h.h.h.h.",
"h.h.h.h.h.h.h.h.h.h.h.h.h.h.h.h.$ ; > h.h.h.h.h.h.h.h.h.h.h.h.h.",
"h.h.h.h.h.h.h.h.h.h.h.h.h.h.h.h.h.h.h.h.h.h.h.h.h.h.h.h.h.h.h.h."
};
