/* XPM */
static char *cGl4aWwtZnJhbWUtMA__[] = {
/* columns rows colors chars-per-pixel */
"32 32 74 1 ",
"  c black",
". c #010101",
"X c #020202",
"o c gray1",
"O c gray2",
"+ c #070707",
"@ c gray3",
"# c gray4",
"$ c #0B0B0B",
"% c #0C0C0C",
"& c gray5",
"* c gray7",
"= c #181818",
"- c gray11",
"; c #1E1E1E",
": c gray14",
"> c #282828",
", c #2A2A2A",
"< c gray18",
"1 c #2F2F2F",
"2 c #313131",
"3 c #343434",
"4 c #353535",
"5 c #373737",
"6 c #393939",
"7 c #3A3A3A",
"8 c gray23",
"9 c #3C3C3C",
"0 c #3E3E3E",
"q c #434343",
"w c gray28",
"e c #505050",
"r c #555555",
"t c #646464",
"y c DimGray",
"u c gray44",
"i c #727272",
"p c #777777",
"a c #797979",
"s c #868686",
"d c gray53",
"f c #AAAAAA",
"g c gray67",
"h c #ACACAC",
"j c #BBBBBB",
"k c #CACACA",
"l c gray80",
"z c #CECECE",
"x c #D2D2D2",
"c c gray83",
"v c gray85",
"b c gray87",
"n c #DFDFDF",
"m c #E1E1E1",
"M c #E2E2E2",
"N c gray89",
"B c #E7E7E7",
"V c #E9E9E9",
"C c #EEEEEE",
"Z c #EFEFEF",
"A c #F0EDF0",
"S c #F3F3F3",
"D c gray96",
"F c #F6F6F6",
"G c gray97",
"H c #F8F8F8",
"J c #F9F9F9",
"K c gray98",
"L c #FBFBFB",
"P c gray99",
"I c #FDFDFD",
"U c #FEFEFE",
"Y c white",
"T c None",
/* pixels */
"TTTTTTTTTTTTTTTTTTTTTTTTTTTTTTTT",
"TTTTTTTTTTTTTTTTTTTTTTTTTTTTTTTT",
"TTTTTTTTTTTTT--a-uy-CTTTTTTTTTTT",
"TTTTTTTTTTT--TTYYYYK-:NTTTTTTTTT",
"TTTTTTTTTK1BYKYYYYYYYF0BTTTTTTTT",
"TTTTTTTTT3FYYYYYYYYYYYF1TTTTTTTT",
"TTTTTTTT1KYYKYYYYYYYYYFCpTTTTTTT",
"TTTTTTTj-YYYYKYYYYYYYYYY8TTTTTTT",
"TTTTTTT:YYYYYYFYYYKYFYKYCqTTTTTT",
"TTTTTTn-KYKYYYYYYFYKYYYYL1TTTTTT",
"TTTTTT-YYY --YYKKFYq  zYY8TTTTTT",
"TTTTTT8YK&    YYYY&    CYqTTTTTT",
"TTTTTTqYz++   KYYY     nYqTTTTTT",
"TTTTTT-YN    -YYYY# + #YY-TTTTTT",
"TTTTTT-YYv  -YYYKYS   KKY-TTTTTT",
"TTTTTT-YYYYYKYYKYYYYKYYYY-TTTTTT",
"TTTTTT-YYYYYY-YYY-KYYYYYY-TTTTTT",
"TTTTTT-YYYYYYF3:-BYYYYYYY-TTTTTT",
"TTTTTT-YYYYYFYYYKKYYYYYYY-TTTTTT",
"TTTTTT-KYYYYKYKYYKYYYYYYY-TTTTTT",
"TTTTTT-YYYYYYYYYYYYYYYYYY-TTTTTT",
"TTTTTT-YYYYYYYYYYYYYYYYYY-TTTTTT",
"TTTTTT-YYYYYYYYYYYYYYYYYY-VTTTTT",
"TTTTTN-YYYYYYYYYYYYYYYYYY-zTTTTT",
"TTTTT-NYFKYKYYYYYYYYKYYYYC-TTTTT",
"TTTTTuF-YYYKYYTYYYYYYYTYfY8TTTTT",
"TTTTT,-f-Y0rYf1dYqtYY-wY3-8FTTTT",
"TTTTT&kTd-TT*xTT-TTe:fT-xTTTTTTT",
"TTTTTTTTTTTTTTTTTTTTTTTTTTTTTTTT",
"TTTTTTTTTTTTTTTTTTTTTTTTTTTTTTTT",
"TTTTTTTTTTTTTTTTTTTTTTTTTTTTTTTT",
"TTTTTTTTTTTTTTTTTTTTTTTTTTTTTTTT"
};
