/* XPM */
static char *cGl4aWwtZnJhbWUtMQ__[] = {
/* columns rows colors chars-per-pixel */
"32 32 48 1 ",
"  c black",
". c #010101",
"X c #020202",
"o c gray1",
"O c gray2",
"+ c #070707",
"@ c gray3",
"# c gray4",
"$ c #0B0B0B",
"% c #0C0C0C",
"& c gray5",
"* c gray7",
"= c #181818",
"- c gray11",
"; c #1E1E1E",
": c gray14",
"> c #282828",
", c #2A2A2A",
"< c gray18",
"1 c #2F2F2F",
"2 c #313131",
"3 c #343434",
"4 c #373737",
"5 c #393939",
"6 c #3A3A3A",
"7 c gray23",
"8 c #3C3C3C",
"9 c #3E3E3E",
"0 c #434343",
"q c gray28",
"w c #505050",
"e c #555555",
"r c #646464",
"t c DimGray",
"y c gray44",
"u c #727272",
"i c #777777",
"p c #797979",
"a c #868686",
"s c #AAAAAA",
"d c #F9F9F9",
"f c gray98",
"g c #FBFBFB",
"h c gray99",
"j c #FDFDFD",
"k c #FEFEFE",
"l c white",
"z c None",
/* pixels */
"zzzzzzzzzzzzzzzzzzzzzzzzzzzzzzzz",
"zzzzzzzzzzzzzzzzzzzzzzzzzzzzzzzz",
"zzzzzzzzzzzzz--p-ut-zzzzzzzzzzzz",
"zzzzzzzzzzz--lllllll-:zzzzzzzzzz",
"zzzzzzzzzz<lllllllllll8zzzzzzzzz",
"zzzzzzzzz3lllllllllllll<zzzzzzzz",
"zzzzzzzz2lllllllllllllllpzzzzzzz",
"zzzzzzzz-lllllllllllllll5zzzzzzz",
"zzzzzzz:lllllllllllllllll0zzzzzz",
"zzzzzzz-fllllllllllllllll<zzzzzz",
"zzzzzz-ll --llllll0  llll5zzzzzz",
"zzzzzz8l&    llll&    lll0zzzzzz",
"zzzzzz0l++   llll     lll0zzzzzz",
"zzzzzz-l    -llll+ + #lll-zzzzzz",
"zzzzzz-ll  -llllll   llll-zzzzzz",
"zzzzzz-llllllllllllllllll-zzzzzz",
"zzzzzz-llllllllllllllllll-zzzzzz",
"zzzzzz-llllllllll-lllllll-zzzzzz",
"zzzzzz-lllllll3,-llllllll-zzzzzz",
"zzzzzz-fllllllfllllllllll-zzzzzz",
"zzzzzz-llllllllllllllllll-zzzzzz",
"zzzzzz-llllllllllllllllll-zzzzzz",
"zzzzzz-llllllllllllllllll-zzzzzz",
"zzzzzz-lllllllllllllllllll-zzzzz",
"zzzzzz-llfflfllllllllllllll-zzzz",
"zzzzzzul-lllflllllllfllllll5zzzz",
"zzzzzz,-z-l8els<al0rll-0lll5zzzz",
"zzzzzz#zzz-zz*zzz-zzw:zz=--zzzzz",
"zzzzzzzzzzzzzzzzzzzzzzzzzzzzzzzz",
"zzzzzzzzzzzzzzzzzzzzzzzzzzzzzzzz",
"zzzzzzzzzzzzzzzzzzzzzzzzzzzzzzzz",
"zzzzzzzzzzzzzzzzzzzzzzzzzzzzzzzz"
};
