/* XPM */
static char *cGl4aWwtZnJhbWUtMg__[] = {
/* columns rows colors chars-per-pixel */
"32 32 48 1 ",
"  c black",
". c #010101",
"X c #020202",
"o c gray1",
"O c gray2",
"+ c #070707",
"@ c gray3",
"# c gray4",
"$ c #0B0B0B",
"% c #0C0C0C",
"& c gray5",
"* c gray7",
"= c #181818",
"- c gray11",
"; c #1E1E1E",
": c gray14",
"> c #282828",
", c #2A2A2A",
"< c gray18",
"1 c #2F2F2F",
"2 c #313131",
"3 c #343434",
"4 c #353535",
"5 c #373737",
"6 c #393939",
"7 c #3A3A3A",
"8 c gray23",
"9 c #3C3C3C",
"0 c #3E3E3E",
"q c #434343",
"w c gray28",
"e c #505050",
"r c #555555",
"t c #646464",
"y c DimGray",
"u c gray44",
"i c #727272",
"p c #777777",
"a c #797979",
"s c #868686",
"d c #AAAAAA",
"f c gray98",
"g c #FBFBFB",
"h c gray99",
"j c #FDFDFD",
"k c #FEFEFE",
"l c white",
"z c None",
/* pixels */
"zzzzzzzzzzzzzzzzzzzzzzzzzzzzzzzz",
"zzzzzzzzzzzzzzzzzzzzzzzzzzzzzzzz",
"zzzzzzzzzzzzz--a-uy-zzzzzzzzzzzz",
"zzzzzzzzzzz--lllllll-:zzzzzzzzzz",
"zzzzzzzzzz1lllllllllll9zzzzzzzzz",
"zzzzzzzzz3lllllllllllll1zzzzzzzz",
"zzzzzzzz1llllgllllllllllpzzzzzzz",
"zzzzzzzz-lllllllllllllll6zzzzzzz",
"zzzzzzz:lllllllllllllllllqzzzzzz",
"zzzzzzz-lllllllllllllllll1zzzzzz",
"zzzzzz-llll --llllllq  ll6zzzzzz",
"zzzzzz9lll&    glll&    lqzzzzzz",
"zzzzzzqlll@+   lgll     lqzzzzzz",
"zzzzzz-lll    -llll@   &l-zzzzzz",
"zzzzzz-llll  -llllll   gg-zzzzzz",
"zzzzzz-lllllllllllllgllll-zzzzzz",
"zzzzzz-llllllllllllllllll-zzzzzz",
"zzzzzz-lllllll-llllllllll-zzzzzz",
"zzzzzz-llllllll3,-lllllll-zzzzzz",
"zzzzzz-glllllllllglllllll-zzzzzz",
"zzzzzz-llllllllllllllllll-zzzzzz",
"zzzzzz-llllllllllllllllll-zzzzzz",
"zzzzz-lllllllllllllllllll-zzzzzz",
"zzzzz-lllllllllllllllllll-zzzzzz",
"zzzz-llllllllllllllllllll-zzzzzz",
"zzzzul-lllglllllllgllllll6zzzzzz",
"zzzz,-z-l9rld1slqtll-ql3l6zzzzzz",
"zzzz@zzz-zz*zzz-zze:zz-z-zzzzzzz",
"zzzzzzzzzzzzzzzzzzzzzzzzzzzzzzzz",
"zzzzzzzzzzzzzzzzzzzzzzzzzzzzzzzz",
"zzzzzzzzzzzzzzzzzzzzzzzzzzzzzzzz",
"zzzzzzzzzzzzzzzzzzzzzzzzzzzzzzzz"
};
