/* XPM */
static char *c2t5[] = {
/* columns rows colors chars-per-pixel */
"64 64 254 2 ",
"   c #160A34",
".  c #1A0D35",
"X  c #1B0D3B",
"o  c #160837",
"O  c #1C1334",
"+  c #1D113B",
"@  c #14072E",
"#  c #220E3D",
"$  c #23143B",
"%  c #241A3D",
"&  c #231739",
"*  c #34133E",
"=  c #34223D",
"-  c #2F2035",
";  c #430A3F",
":  c #1D0D42",
">  c #1D0B49",
",  c #1E1044",
"<  c #210D44",
"1  c #230D4B",
"2  c #2B0C48",
"3  c #370A46",
"4  c #231344",
"5  c #261943",
"6  c #2B1C44",
"7  c #25134A",
"8  c #2A154C",
"9  c #2D1C4A",
"0  c #291747",
"q  c #321E4B",
"w  c #31144E",
"e  c #280D55",
"r  c #380C58",
"t  c #2A1554",
"y  c #2C1A53",
"u  c #2C1659",
"i  c #321553",
"p  c #321D53",
"a  c #35145C",
"s  c #3A135D",
"d  c #331C5B",
"f  c #3B1A5D",
"g  c #3B1C54",
"h  c #2E2048",
"j  c #3A2544",
"k  c #32224C",
"l  c #3B254B",
"z  c #392548",
"x  c #352353",
"c  c #3B2553",
"v  c #3B2956",
"b  c #35225B",
"n  c #3B245B",
"m  c #3D2A5B",
"M  c #372853",
"N  c #350B64",
"B  c #3B0C6C",
"V  c #380C67",
"C  c #3A1563",
"Z  c #341C62",
"A  c #3C1B63",
"S  c #3D1B6A",
"D  c #39156A",
"F  c #3D0D72",
"G  c #3B1474",
"H  c #2E1365",
"J  c #3D2262",
"K  c #3F2A61",
"L  c #3B216B",
"P  c #3D2374",
"I  c #430A4B",
"U  c #460A49",
"Y  c #490B55",
"T  c #431D5B",
"R  c #451657",
"E  c #56155C",
"W  c #4E0D4B",
"Q  c #42294D",
"!  c #40274F",
"~  c #422354",
"^  c #442B54",
"/  c #492D55",
"(  c #442B5A",
")  c #4B2C5B",
"_  c #44245B",
"`  c #522E5D",
"'  c #4D325B",
"]  c #483159",
"[  c #53335C",
"{  c #5B355D",
"}  c #440B6A",
"|  c #530B66",
" . c #431C64",
".. c #431C6B",
"X. c #471769",
"o. c #581A65",
"O. c #430B73",
"+. c #470B79",
"@. c #5B0D75",
"#. c #421374",
"$. c #441C74",
"%. c #43127C",
"&. c #4B127B",
"*. c #461C7B",
"=. c #4A1C7C",
"-. c #4B1975",
";. c #551979",
":. c #6B1A72",
">. c #422264",
",. c #432D64",
"<. c #4C2E63",
"1. c #44236B",
"2. c #4A236D",
"3. c #452D6A",
"4. c #4A2A6B",
"5. c #492265",
"6. c #542B67",
"7. c #46316B",
"8. c #4A3368",
"9. c #533464",
"0. c #5A3669",
"q. c #4B2372",
"w. c #492678",
"e. c #54297A",
"r. c #4D3473",
"t. c #573777",
"y. c #643A69",
"u. c #643D72",
"i. c #683C78",
"p. c #702B77",
"a. c #63125E",
"s. c #694278",
"d. c #73447D",
"f. c #7F427E",
"g. c #5E4775",
"h. c #84187B",
"j. c #3E1785",
"k. c #4A0C86",
"l. c #550C87",
"z. c #451483",
"x. c #4C1D83",
"c. c #4C1B8B",
"v. c #4B1488",
"b. c #561787",
"n. c #560C99",
"m. c #4C1992",
"M. c #511B94",
"N. c #561899",
"B. c #651A98",
"V. c #6A1390",
"C. c #4C2183",
"Z. c #4D2889",
"A. c #562487",
"S. c #5B3586",
"D. c #592696",
"F. c #552F9B",
"G. c #643588",
"H. c #773486",
"J. c #672798",
"K. c #693796",
"L. c #6F3091",
"P. c #5B1BA7",
"I. c #5E16AD",
"U. c #6618A9",
"Y. c #7716AA",
"T. c #661CB7",
"R. c #7917B7",
"E. c #670DAC",
"W. c #5927A4",
"Q. c #5B28AE",
"!. c #6727A6",
"~. c #7526AA",
"^. c #6635A7",
"/. c #743AA7",
"(. c #6824B7",
"). c #7428B8",
"_. c #6A34B5",
"`. c #7A3AB7",
"'. c #5D4189",
"]. c #784887",
"[. c #795389",
"{. c #674596",
"}. c #744696",
"|. c #6E4A8E",
" X c #7947A9",
".X c #7C46B5",
"XX c #7753AB",
"oX c #711DC7",
"OX c #5F25C1",
"+X c #6A27C1",
"@X c #7827C8",
"#X c #7B25D5",
"$X c #7939CD",
"%X c #7F26E0",
"&X c #7743C5",
"*X c #9A3797",
"=X c #8E308C",
"-X c #A2349B",
";X c #8B18B7",
":X c #8632B2",
">X c #AF38A3",
",X c #A415BD",
"<X c #C33AAD",
"1X c #96469A",
"2X c #855496",
"3X c #89478F",
"4X c #925AA4",
"5X c #8548B8",
"6X c #9050B1",
"7X c #A749A9",
"8X c #AC55AE",
"9X c #9A63A8",
"0X c #8A61B0",
"qX c #A86BB8",
"wX c #995E9E",
"eX c #8819CD",
"rX c #8328DA",
"tX c #8836D7",
"yX c #8D34CD",
"uX c #A628D5",
"iX c #8B35E6",
"pX c #9B39F7",
"aX c #8E2EEB",
"sX c #A737FA",
"dX c #B234EE",
"fX c #CF35EF",
"gX c #E83DFD",
"hX c #8B4CC6",
"jX c #9A57D7",
"kX c #914BCF",
"lX c #B359D1",
"zX c #9965D2",
"xX c #AF6DC8",
"cX c #9548F0",
"vX c #A64BE8",
"bX c #B24FF7",
"nX c #B470F0",
"mX c #CF66D1",
"MX c #D75CF9",
"NX c #CA4DF8",
"BX c #F94DFB",
"VX c #CD6FF7",
"CX c #E770F5",
"ZX c #C753C7",
"AX c #D544B9",
"SX c #BF82C7",
"DX c #CC88D7",
"FX c #D28AEC",
"GX c #EF93F7",
"HX c #FBB4FD",
"JX c #F9AAFC",
"KX c #FFD9FF",
"LX c #F2C7FA",
"PX c #F9F7FA",
/* pixels */
"V.V.E.E.oXeXeXeXR.oXoXoXY.V.B.N.b.;.-.;.B.).`.:XyXyX:X`./././.K.K.G.t.t.6._ ( ) 0.8.' ' 8.' ^ ] ] ] ] 8.t.g.r.8.r.r.8.] m M h h ",
"l.n.n.V.V.E.E.E.E.E.U.U.U.U.B.A.b.b.b.J.~.).~.~.~.!.J.J.J.L.L.L.G.G.G.t.6.6.<.<.0.8.8.8.8.g.8.] 8.m v ] 8.8.8.7.8.8.m m M M h h ",
"+.l.l.l.l.l.l.l.U.N.V.N.U.!.B.D.B.N.N.~.).).).J.L.A.A.e.e.G.G.L.G.G.G.G.i.t.t.G.t.t.t.t.g.g.t.t.g.] ] v ] ( 8.] m m m m M k h h ",
"+.@.+.+.+.&.k.&.B.l.l.N.P.U.U.U.@XT.).).yX~.!.D.;.q.-.q.e.e.A.G.A.G.G.G.K.}.}.|.s.G.K.|.|.s.|.}.r.] v M m m m m m m m m M k h = ",
"+.| O.} O.O.+.+.k.l.N.P.U.U.oXrXeXrXrX#X).J.A.=.-. ...X.5.q.e.A.G.G.G./. X X X XXXhX0XzX0X0XXX|.g.K M M v ( ] M v v m M k q 6 6 ",
"+.O.} } F +.k.+.O.k.P.I.T.@XeXaXsXsXpX#X(.M.;.$....... ...q.q.e.S.G.K. X5X5X5X6XzXFXFXnXzX0XXXXXg.8.M v m m m M M v m n x k 6 6 ",
"O.} } B B O.O.O.B &.n.P.+X#XaXsXfXbXsX@XU.b.=.=.$.X.5.C T  .2.q.w.A.K..X5X5XhXzXnXGXJXJXFXzXzXXX'.7.m v m m m m v n m n v M z 6 ",
"O.O.B B B O.B B D F z.n.oXaXsXfXNXfXaX@XN.e.=.*.-.-.2. .s  . .>.2.e.K..X:X5XhXzXnXFXFXGXnX.X{.XXt.8.v M M M m K v v m K m v k q ",
"+.+.+.F B F F N N F z.n.T.%XaXpXsXpXrX(.D.x.=.$.=.$... .A f A >.1.q.D..XhXhXkXjXnXnXnXnXnXXX'.t.8.,.v k M m ,.,.>.3.3.7.3.K M x ",
"n.k.k.+.B V N N B B %.m.I.#X%XaXrX#X@XP.c.x.=.=.$... .A f f A  .2.e.K..XkXjXjXjXzXjXnXnXhXK.t.K ,.m v M v ] ,.7.7.7.7.r.3.K n M ",
"n.n.k.F B N N N B B G v.P.I.oXoX(.T.W.M.c.=.=.=.....A a f  . .2.q.e.J./.hXhXzXhX.X X XXX}.t.,.8.M x k M v K ,.K 7.r.r.r.3.K m K ",
"n.n.k.F B N N N B B F %.j.m.P.I.P.P.W.m.x.=.=.&...C a f f f 1.2.2.e.A.A.K./.K.K.S.S.S.L 4.8.g p k k k k M M K K 7.7.7.7.7.K K 3.",
"n.n.+.F N N N N F F F F j.m.n.m.U.P.N.c.*.#.#.#.D A a a f A ..q.2.q.w.w.e.A.e.S.S.r.4.,.m ^ M k h q z k k M K 7.7.7.7.7.3.K 3.7.",
"n.n.k.F N B F F F B B F j.k.m.m.P.N.M.x.#.S ..S f a a i f f  .1.>.>.>.4.4.>.1.r.S.r.n m v q q k k k k k x x K 7.7.K K K K 3.3.7.",
"E.n.k.+.F H B B F B B F k.j.m.m.m.m.v.*.C C ..#.C a a d a f S >.A f >.4.1.>.>.3.r.|.t.m v m x 9 k k h k h x b K 3.K K m K K K r.",
"E.E.n.k.F F F F F B F j.z.m.m.m.x.c.x.G C C C C S a f f f f A  . .>.>.>.J >._ >.A r.J K n 8 M x k k 6 6 h x m K K K v v b n 3.r.",
"E.I.n.k.j.B N N N G G j.k.v.m.m.c.j.$.C a a N D D C C A  . . .A f g T >.q.1.4.>.n J _ b x y h M k k h h h k v m ,.n x x x ,.r.'.",
"n.I.n.k.k.B B N N B F j.z.z.m.m.c.z.G D a C f D S S .... .A A S J 1.>.1.1.w.4.J >._ J b x b h h k 6 % % k M M x b x m M m 7.t.{.",
"k.k.n.k.k.F B B B F F j.v.m.m.P.m.x.G D C C C D S $.....D A Z A S a 1.L S t.1.3.J _ n n x y y h h 6 6 6 h h k k M x v M m K Z.{.",
"k.k.k.k.k.k.F j.%.z.F j.m.M.P.P.N.m.z.#.D D D S G S $.D A a a f S q.A q.1.w.w.7.>.J n b x x h h 6 q h 6 % h h h k k x x M r.'.XX",
"} O.k.k.k.m.m.n.n.k.j.k.M.Q.Q.I.P.N.c.=.$.#...$.$.$.$.S a a a g A 1.>.C w.Z.w.Z.1.3.L n M x y h x q 5 5 h h % % h h h M m r.{.XX",
"N O.%.v.n.n.n.P.I.I.n.m.P.I.T.I.P.N.M.c.&.*.$.*.=.=.q.$.D i i p L A $.S.w.S.zXS.w.w.3.J b y h y x x x h h 6 % % h h h h b K '.XX",
"r O.%.l.n.n.I.I.#XoXI.P.I.(.(.(.(.P.P.c.c.*.*.*.x.A.C.$.S f i i f $.q.x.F._..X^.Z.w.L J b b b y b b M x 5 5 + h % % h M m r.'.XX",
"N O.%.z.n.I.T.#XaX#XT.Q.T.OX(.+X(.(.W.N.A.x.x.&.c.b.C.C.q.S f a Z 1.w.F._.&X&X^.Z.w.L Z b b y b b b b h 5 6 % % % % 5 h M P '.{.",
"r O.&.l.N.T.rXaXsXtXU.T.T.+X+XrXiX#X#XOXQ.D.D.M.D.N.D.C.C.$.S S ..q.D._.$X$X&X^.P K b b Z Z b 5 5 h 5 % % % O % O % % h M M 7.g.",
"r } &.v.U.T.rXaXpXpX(.(.(.(.+XrXsXiXiXtX_.W.!.!.W.D.D.A.C.x.=.w.C.w.C.D._.Q.F.Z.P P y Z Z Z y y 5 5 5 % O O O O % O % % h h M 7.",
"s s } x.J.@XrXaX%XrX).T.(.(.$X%XsXcXcXpX%X+X(._.!.W.D.x.A.x.C.Z.M.C.P 1.P *.Z.P P P Z Z Z b y y 5 5 5 % O O O O O O O % h h M m ",
"s r } &.U.@XrXrX@X@X@X).(.(.$X%XsXsXbXpXiX$XtX$X(.!.D.x.x.x.Z.Z.Z.C.A d d d Z P P P P P P b y 7 7 y % % O O O O O O O % % h M M ",
"r s  .;.U.).@X@X(.(.(.).).@XiXaXbXNXCXMXbXiXiXyX_.F.A.A.C.x.C.C.q.D a d t t d Z P P P P Z b y 7 7 7 5 % O O O @ O O O O % 5 h M ",
"s  .-.x.N.!.~.~.J.N.N.!.).kXbXbXNXGXKXGXMXcX$XJ.D.A.C.w.w.w.S S i t t u u t u d H P H u y 7 7 y 7 5 % , O O O O O O O % % % h h ",
"R  .-.;.e.e.A.J.A.K.b.!.$XcXbXMXCXJXPXHXCXcX`.Z.$.$...1.S S Z u 0 7 7 7 7 7 7 t y Z H u > , , , 5 , , O O O O O O O O % % % h h ",
"R  .-.-.-.X.-.;.;.K.A.K.yXbXNXCXGXJXLXHXMX$XJ.C.S A A D D d 8 8 7 4 4 < # < 7 1 7 u u y y , , , 5 + + O O O O @ O O O O % % 5 h ",
"s  .o.5.X. .T T X.G.K.).yXvXbXMXCXVXbXbXjX^.e...i i w w 8 w 8 2 , 4 $ . . # . $ , , 7 7 b r., , , + +       O   + O O % O % 5 x ",
"T T 5. . .T f _ ..e.G./.`.kXvXvXbXbXbXkX~.A...i 9 8 0 2 8 0 0 4 # X # . @ . . . , , 7 , , y , y O + + + O O + O + + % , % % h h ",
"T T T T T T R g T 2.e.K..XkXkXkXjXjXkX/.e.1.g 6 0 6 0 # # $ $ # X X # . @ @ . o o X : : , , : , +       O , , , % , 5 5 , 5 h y ",
"R T T T ~ T g g _ T 6.S./.5XhX5X5X5X XS.1.g 0 6 0 % & $ # # # $ X $ . .     . .   o o : , , : :         , % , , 5 y h 5 5 h h h ",
"~ ! T ~ ~ g g g _ g _ 6.S.}. XK.G.G.e.2.~ q 0 * % & $ # # . . . + + + O .   .   @ . o o X X X : +       , , 5 , 7 y y y y h h h ",
"T T ~ ~ ! g g ! ~ c ~ 5.4.S.t.e.e.r.4._ l g q w * & $ $ & $ O O O + + X .   .   @ o o @ o o X o       , , , , 7 y 7 y y y y y y ",
"~ ~ ~ ~ ~ g ~ _ ~ _ ) ) 6.6.t.6.0.4.,.~ q q z 0 6 * & $ & & & # . + X X . . .   o @ o @ o     @     +   , , 5 7 y 7 t y y y x x ",
"` T ! R ! ~ ~ _ _ ) ` ) 0.4.6.0.t.<.5.,.l 6 q h % & $ $ $ & # . . X + X X . + X . @       @ @         , , , 7 7 y t y b Z Z b b ",
"6.6._ ~ ~ ~ ~ ) ) ) ) <.<.9.0.r.0.8.,.( x q q q 0 6 % % 0 # # $ # # # < > , : :   o o o o @       X > > 1 4 1 7 t u u Z Z Z b y ",
"0.6.` ) ~ ^ ^ ^ ~ ^ ) ) ) 6.6.9.<.<.<.) ^ c l q k q 6 6 0 $ 6 % . $ 4 4 > > > : : : : o o o     . : 7 1 : < < < 7 7 y d d b b b ",
"0.6.6.[ ` ` ) ~ ~ ^ ) / ) ) ) ) ( ^ ( ) ( ^ c q k q 0 0 0 6 6 0 4 7 7 7 u e e > > > > : o o o o X : 7 : < < < < , 5 7 y y Z Z b ",
"p.0.6.` <.` ) / ^ ^ ) / / ( ( ^ ^ ! ~ ^ ( ( ~ c z k q q q w 8 8 7 7 1 u H P H H u > > > o o @ o X : 1 1 < X X < , , 7 y y y Z b ",
"G.u.6.` ` ` ) ) / / ^ / ^ Q Q l l z l ^ v v ^ c ] v p y 9 d d Z y y u D j.m.j.j.H H e > > : o o : > 1 < < X < < 7 7 t 7 y b b Z ",
"].d.0.` <.) / / ^ Q Q ^ Q l j j j j l l l l c x ( n J J J K 1.P L S G Z.Q.Q.m.j.H H H e > > : > > 1 1 1 : # < < 1 7 7 t u Z P P ",
"].].0.6.` ' / Q Q Q Q l j j = % = = j z z l ~ l ( 4.Z.r.4.4.q.w.Z.F.D.Q.OXOXW.j.j.G H H > e > > 1 1 e 1 < < < < 1 7 7 t Z P Z.F.",
"].i.y.0.6.' ) Q l Q j j j j = = = = z z z l c ~ r.t.S.S.e.4.w.w.Q.W.W._.OXOXW.j.j.j.j.G H e e N e e e e < # < < 4 2 y b P Z.F.{.",
"].i.u.u.0.' ] Q l l Q = j = = - = q j q Q Q ~ ^ r.K.K.K.S.q.q.w.A.D.D.M.m.W.P.m.G G G F F V N N e e 2 1 1 < < 4 2 w i S C.F.&X&X",
"G.s.i.u.0.[ ' ] ' ] Q Q Q Q j = = j ! Q ^ ^ _ <.0.}. X/.G.6.1.Z.w.C.C.&.z.c.M.c.F F F F F B B N N e e e 2 2 2 e 2 w C w.W.$XcXcX",
"d.s.s.u.0.9.[ / ] / Q Q Q Q Q j l ! ^ ^ / / 6.t.G.4X5X XG.e...w.q.w.....#...$.&.D B B O.G F B D N N r r a e e i t a $.m.$X&XcXcX",
"i.s.s.u.0.0.9.' ] / / Q Q ] / / ^ ] ' ' ' 6.t.}.1XhXhX/./.e...X.2.-. .a r a N r V X.&.&.&.&.#.#.O.} B N a r r i a a *.D.$XcXcXnX",
"u.u.u.u.0.0.0.[ [ ] ] [ [ [ ] [ 9.9.9.9.0.i.3X6XjXlXlX:X}.e.T  . . .R r 3 2 r r r } -.&.;.+.k.&.&.+.#.#.} s i r C C w.!.cXbXbXVX",
"u.y.u.u.0.u.g.0.' [ / Q / [ [ { [ 0.y.u.i.H.6X6XnXvXkX XG.6.R R R  .R s r 3 2 2 r r } -.+.+.l.l.l.&.&.&.-.D } r X.;.D.).iXbXVXGX",
"s.g.y.i.s.].s.s.{ [ ' ] ' [ [ { [ { u.'.}.3X6X6X6X6X:XL.6. .R ~ R R  .R r 3 2 * 3 2 r Y C +.@.V.V.b.l.l.&.;.X.X.&.b.^.@XdXMXGXJX",
"s.y.u.s.].[.[.s.y.g.[ ' ' ' [ [ [ y.i.H.3X4X1X6X1X*XH.p.o.R R R R s Y R r 3 * 2 3 3 3 3 Y } l.V.B.B.V.B.b.l.&.&.b.D.J.@XsXMXGXGX",
"g.s.s.[.[.XX}.[.g.g.y.{ [ ] / { { y.d.].3X3X3X3X=X=XH.e.6.o.R R X.Y I r 3 3 * 3 3 3 3 3 r | l.V.Y.Y.R.Y.V.b.b.@.b.b.L.:XiXvXbXCX",
"s.s.3X2X4X2X2X[.2Xf.g.{ [ [ ' { { y.d.3X1X8X7X1X6XH.H.p.:.6.E E E R R R 3 * * * 3 3 * 3 3 } @.@.V.;X;XY.Y.B.B.b.;.;.B.~.yXtXuXbX",
"].2X9XxXxX9X4X2XwX2X[.g.y.{ [ [ { f.f.wX7X8XmXZX1XH.p.H.p.:.:.o.E R Y W 3 3 3 * 3 3 3 3 I } | +.@.Y.;X;X;XR.E.V.V.J.Y.~.).:X`.tX",
"].wXxXFXFXDXqX2X2X[.[.d.s.y.{ { y.f.3X>XlXCXCXZX*XH.p.=X=X=Xh.a.o.E W R U U * U I 3 I I Y Y | | @.@.Y.;XuXuX;X;X:X;X:XB.L.L.J.L.",
"d.9XSXFXJXHXDXxX9XwX2X[.s.y.{ y.f.f.>X8XmXmXmXZX*X*X=X*X-Xh.h.@.a.E W W U 3 U * U U I I U Y Y | @.@.V.;XuXuXfXfXdXyX:XV.V.:.q.6.",
"f.[.wXxXHXKXLXDXmXqXwX2Xd.s.y.y.y.f.wX8X8X7X>X-X*X>X*X*X-X=Xh.:.a.a.W U ; U U U U U U I U Y Y | | @.V.Y.,XfXgXgXfX,XJ.;.e.;.X.2.",
"2X[.9XqXLXPXPXJXDXDXqXwXf.s.{ y.y.f.f.1X1X*X=X=X-X>X>X>X=X=X=Xh.:.a.W U ; U W U W Y U W Y Y Y | | @.:.;X,XfXBXBXNXuX:Xb.-.X.X. .",
"2X9XSXGXKXPXPXKXHXHXDXwXf.y.{ { { f.f.3X=Xf.1X1X-X<XAX<X=X-X-X=X:.a.W U ; U W Y Y Y Y W Y Y Y | @.| :.;X,XNXBXBXBXfXuX~.6.E E o."
};
